<svg xmlns="http://www.w3.org/2000/svg" height="207.992" width="150.155"><path d="M20.264 66.436c3.282 1.922 6.589 3.98 9.844 6.24 1.208.839 2.744 1.978 4.369 3.183 3.281 2.435 7.752 5.751 9.33 6.31a68.551 68.551 0 007.712.615c.339-11.9-2.1-20.412-7.482-25.963-6.353-6.548-9.245-10.749-11.755-19.918a6.934 6.934 0 01-1.541.951 13.718 13.718 0 01-3.616 1.031 17.011 17.011 0 01-6.346-.2 14.028 14.028 0 01.253 3.855 49.148 49.148 0 01-1.532 7.828c-1.354 5.329-2.525 9.93.751 16.023.007.013.006.029.013.045z" fill="#fff"/><path d="M120.394 34.6a1.31 1.31 0 011.669 1.372c-.05.58-.092 1.17-.135 1.769-.4 5.551-.853 11.841-7.011 15.863a18.563 18.563 0 01-7.036 2.466 20.694 20.694 0 01-2.422.228 21.086 21.086 0 013.969 2.619 17.443 17.443 0 015.642 11.8c5.315-1.973 12.5-4.745 18.543-7.259.084-5.024.11-21.38-.049-28.829-.454-21.2-5.451-32.069-14.851-32.315-14.641-.383-16.42 24.805-17.383 38.337-.08 1.121-.155 2.174-.23 3.139v.008a52.124 52.124 0 01-.091 6.3c4.305-6.711 9.522-12.662 19.385-15.498z" fill="#d09d2a"/><path d="M62.51 41.943a14.4 14.4 0 012.158 2.847c1.767 3.057 3 10.821 3.456 20.574a20.35 20.35 0 012.95-4.511c4.074-4.664 10.312-7.285 18.536-7.793.52-.032 1.045-.019 1.568-.024.235-4.372.235-8.9-1.762-12.63a1.311 1.311 0 011.252-1.927c.518.038 1.026.047 1.535.06-.591-1.8-3.032-6.917-5.418-7.889-3.5-1.427-7.861 1.4-12.08 4.132-1.566 1.014-3.055 1.968-4.5 2.712-.684 1.661-2.549 2.314-4.07 2.819a13.744 13.744 0 00-3.625 1.63z" fill="#fdbe2a"/><path d="M54.139 82.81c3.62 0 7.441-.2 11.375-.566a43.74 43.74 0 01.184-8.2c.006-13.116-1.263-24.422-3.3-27.947-2.247-3.889-5.72-5.6-9.519-4.706a12.066 12.066 0 00-8.8 11.036 1.262 1.262 0 01-.13.479c.616.67 1.265 1.357 1.968 2.081 5.897 6.082 8.573 15.207 8.222 27.823z" fill="#ed9b42"/><path d="M73.051 62.58a21.29 21.29 0 00-4.729 11.556c0 2.56-.051 5.186-.153 7.85a199.766 199.766 0 0042.429-9.637c.552-.2 1.166-.417 1.831-.659.261-3.478-1.836-8.344-4.7-10.775-4.162-3.538-11.38-5.644-17.958-5.238-7.49.459-13.126 2.785-16.72 6.903z" fill="#f3783c"/><path d="M40.276 93.788c.024-.872-.018-1.845-.062-2.85-.106-2.457-.19-5.2.592-7.408-1.951-1.193-4.621-3.142-7.892-5.567-1.6-1.188-3.112-2.31-4.3-3.136a181.806 181.806 0 00-17.329-10.42c-.339 14.625-.483 29.259-.618 43.432-.076 8.124-.154 16.266-.268 24.486-.114 8.343-2.323 16.915-4.46 25.2a140.438 140.438 0 00-3.589 16.542c1.986 3.873 9.5 10.365 14.036 14.287 1.1.955 2.063 1.783 2.773 2.425 1.864 1.686 14.09 8.848 21.242 12.961-.043-.134-.09-.288-.133-.427a40.649 40.649 0 00-4.878-8.246l-2.969-3.991a37.039 37.039 0 01-2.761-4.32c-3.142-5.558-5.668-11.363-8.263-17.073-1.915.436-3.9.879-5.978 1.291a34.394 34.394 0 01-7.36.876c2.267-1.024 4.407-2.112 6.662-3.1a20.331 20.331 0 016.121-1.787 101.021 101.021 0 01.715-13.376c.357-2.484.772-4.753 1.071-7.139.285-2.368.563-4.74.705-7.127.168-2.386.244-4.777.44-7.167l.593-7.184c.37-4.8.77-9.614 1.335-14.418.314 4.826.58 9.642.687 14.473.044 2.415.127 4.835.072 7.256-.018 2.422-.255 4.838-.461 7.254-.236 2.415-.465 4.834-.77 7.246-.3 2.394-.746 4.866-1.072 7.15a100.531 100.531 0 00-.692 13.964c2.722 5.966 5.3 11.954 8.477 17.568a34.1 34.1 0 002.595 4.063l2.974 4 .092.131c-.133-.645-.24-1.237-.284-1.688-.405-4.2-.981-8.416-1.538-12.5a176.067 176.067 0 01-2.121-23.351 230.643 230.643 0 013.916-40.96c1.108-6.266 2.491-14.074 2.7-21.37z" fill="#caa575"/><path d="M75.951 83.593c-11.865 1.819-23.542 2.471-32.636 1.152-.046-.007-.091-.019-.136-.03a20.41 20.41 0 00-.348 6.11c.045 1.072.088 2.108.063 3.038-.216 7.489-1.616 15.4-2.743 21.758a228.163 228.163 0 00-3.876 40.495 174.184 174.184 0 002.1 23c.561 4.1 1.139 8.35 1.551 12.6.269 2.777 2.839 10.859 3.708 13.539.736.018 1.713.062 3 .122 6.484.3 18.571.857 27.87-.75l.313-.048c33.489-5.135 68.76-22.56 72.891-26.208-.748-1.96-1.955-6.244-3.6-12.766-2.316-9.2-4.944-19.619-5.515-30.218-1.03-19.024-.48-34.418 1.729-48.45.512-3.241.992-6.451 1.47-9.64.779-5.2 1.6-10.541 2.516-15.846-8.557 4.571-32.56 13.267-32.838 13.365a202.19 202.19 0 01-35.519 8.777z" fill="#caa575"/><path d="M136.299 48.366c.009 5.465-.012 10.869-.048 13.98 4.593-1.969 8.113-3.657 8.884-4.478.038-.038.106-.111.062-.4-.309-2.082-4.862-6.411-8.898-9.102z" fill="#ab8553"/><path d="M113.482 51.41c5.023-3.281 5.45-8.573 5.82-13.71-8.7 3.053-13.1 8.872-17.241 15.658 2.728.851 8.468-.022 11.421-1.948z" fill="#b5c933"/><path d="M15.51 58.467c-.4.215-.8.416-1.2.615-1.813.891-2.776 1.462-2.967 2.366 1.686.907 3.4 1.849 5.135 2.818a17.822 17.822 0 01-.968-5.799z" fill="#ab8553"/><path d="M93.799 53.123a32.354 32.354 0 014.34.606c.017-.517.068-1.228.131-2.085.212-2.861.589-7.917-.238-10.9a25.958 25.958 0 01-5.4.441c1.399 3.787 1.381 7.934 1.167 11.938z" fill="#b78d43"/><path d="M20.051 35.7c2.474 1.171 7.054.943 9.587-.229.863-.4 1.421-.9 1.422-1.268a1.3 1.3 0 01.357-.877q-.157-.777-.307-1.569c-1.233-6.476-2.3-10.467-8.263-9.332-2.295.407-3.742 1.15-4.425 2.274-1.188 1.958-.157 5.25.935 8.733.238.752.475 1.504.694 2.268z" fill="#85c3e9"/><path d="M53.819 38.607a10.2 10.2 0 016.609 1.62 14.669 14.669 0 014.887-2.4 7.464 7.464 0 002.22-.955 1.3 1.3 0 01.336-1.042 5.405 5.405 0 00-.205-.864c-.119-.377-.65-.641-1.507-1.04-1.371-.64-3.249-1.516-3.855-4.024-.427-1.756.651-4.156 1.6-6.272a3.01 3.01 0 01.063-.141c-8.013.543-8.933-1.021-11.881-7.936l-.067-.152c-.594 1.01-1.21 2.334-1.812 3.63-1.8 3.879-3.665 7.888-6.764 8.363l-.124.017a4.226 4.226 0 01-2.6-.548 18.6 18.6 0 005.545 9.431 9.077 9.077 0 007.491 2.315c.024-.007.044.001.064-.002z" fill="#abb833"/><path d="M110.596 72.349c.552-.2 1.166-.417 1.831-.659a12.682 12.682 0 00-1.126-5.643c-7.047 3.869-20.959 9.647-43.041 11.15-.024 1.591-.03 3.164-.093 4.789a199.766 199.766 0 0042.429-9.637z" fill="#df642f"/><path d="M54.139 82.81c3.62 0 7.441-.2 11.375-.566a45.182 45.182 0 01-.011-5.455c-2.1.655-6.542 1.86-8.638 1.123 0 0-.009-21.222-12.494-27.461a12.686 12.686 0 00-.29 1.981 1.262 1.262 0 01-.13.479c.616.67 1.265 1.357 1.968 2.081 5.895 6.077 8.571 15.202 8.22 27.818z" fill="#e38b34"/><path d="M72.013 55.902a72.068 72.068 0 00-3.275-12.7 10.07 10.07 0 003.473-3.093 10.4 10.4 0 001.652-4.79c-1.257.807-2.478 1.57-3.654 2.178-.684 1.661-2.549 2.314-4.07 2.819a13.744 13.744 0 00-3.629 1.63 14.4 14.4 0 012.158 2.847c1.767 3.057 3 10.821 3.456 20.574a20.35 20.35 0 012.95-4.511c4.074-4.664 10.312-7.285 18.536-7.793.52-.032 1.045-.019 1.568-.024a46.188 46.188 0 00.01-5.81c-6.667-.455-14.12 3.348-19.175 8.673z" fill="#e8a91b"/><path d="M133.613 63.459c.034-2.06.059-6.035.065-10.511a69.6 69.6 0 01-15.112 9.433 19.066 19.066 0 00-1.449-3.833c-.211-.41-.439-.8-.673-1.18a21.83 21.83 0 009.035-17.389 4.59 4.59 0 00-3.5-4.551 1.307 1.307 0 01.086.544c-.05.58-.092 1.17-.135 1.769-.4 5.551-.853 11.841-7.011 15.863a18.563 18.563 0 01-7.036 2.466 20.694 20.694 0 01-2.422.228 21.086 21.086 0 013.969 2.619 17.443 17.443 0 015.642 11.8c5.313-1.972 12.501-4.744 18.541-7.258z" fill="#906e2d" opacity=".42"/><path d="M40.59 75.788c-3.185-1.576-6.172-4.1-9.137-6.075l-13.07-8.689a17.092 17.092 0 001.868 5.367c.007.013.006.029.013.042 3.282 1.922 6.589 3.98 9.844 6.24 1.208.839 2.744 1.978 4.369 3.183 3.281 2.435 7.752 5.751 9.33 6.31a68.551 68.551 0 007.712.615 67.964 67.964 0 00-.062-5.185 18.024 18.024 0 01-10.867-1.808z" fill="#ecedee"/><g fill="none" stroke="#3e4147" stroke-linecap="round" stroke-linejoin="round" stroke-width="2"><path d="M66.837 82.509c-1.162-15.827 4.9-27.034 22.855-28.14 6.481-.4 14.151 1.52 18.887 5.547 3.163 2.689 5.593 8.139 5.146 12.177M92.459 53.663c.28-4.846.341-9.716-1.887-13.876a25.214 25.214 0 008.286-.6c1.777 3.757.656 12.077.588 14.659M100.222 53.868c4.949-8.282 9.931-14.957 20.535-18.008-.491 5.745-.305 12.565-6.558 16.648-3.733 2.437-11.422 3.453-13.977 1.36M52.821 83.693c.4-10.059-1.019-20.755-7.843-27.787-6.7-6.91-9.354-11.1-11.847-20.918-1.624-6.4-1.389-15.472-10.511-13.854-12.083 2.143-2.158 13.358-2.893 21.284-.831 8.972-5.7 15.167-.631 24.594M18.339 36.169c3.514 2.956 14.018 1.567 14.035-1.96"/><path d="M42.772 52.352c.669-11.006 14.364-17.975 20.761-6.905 2.6 4.5 4 20.271 3.3 37.062"/><path d="M53.984 39.899c-8.7 1.519-15.055-9.216-14.959-16.309 7.041 8.761 9.623-7.764 13.335-10.72 3.923 8.972 3.39 10.1 13.623 9.133-.516 1.768-2.871 5.663-2.405 7.588.817 3.379 4.663 2.822 5.338 4.981 1.641 5.244-4.458 3.312-8.373 7.311"/><path d="M68.822 36.725c5.521-2.528 12.619-9.67 18.457-7.29 3.539 1.443 6.524 9.129 6.345 9.5M99.792 43.687c1.05-13.3 1.834-43.131 18.956-42.682 15 .393 15.931 24.486 16.126 33.6.171 7.985.129 26.058.032 29.732"/><path d="M135.384 46.251c4.6 2.639 13.154 9.915 10.706 12.516-2.618 2.783-29.167 12.726-35.056 14.817-17.929 6.367-48.193 12.666-67.529 9.863-2.433-.753-10.12-6.9-14.146-9.7a193.207 193.207 0 00-19.342-11.523c-.484-4.04 5.741-4.059 7.058-6.866M10.017 62.228c-.577 23.567-.606 46.518-.931 70.078-.194 14.057-6.5 28.986-8.086 41.984 2.245 5.009 13.43 13.986 17.276 17.465 2.737 2.475 24.407 14.808 24.407 14.808s-3.722-11.2-4.062-14.719c-1.16-12.007-3.618-23.564-3.654-35.724a230.683 230.683 0 013.9-40.728c1.243-7.025 2.517-14.44 2.722-21.565.089-3.1-.634-7.4.555-10.222"/><path d="M25.698 110.557c-.358 13.556-.225 27.779-2.536 41.168a96 96 0 00-1.01 16.46M8.051 171.854c4.716-.947 9.776-3.286 14.1-3.669 2.988 6.538 5.952 13.491 9.677 19.705 2.111 3.523 7.133 8.785 9.665 14.964M42.683 206.563c2.732-.109 19.79 1.48 32.047-.641 35.946-5.43 75.333-25.55 74.449-27.429s-2.719-8.93-3.8-13.2c-2.479-9.833-4.929-19.779-5.48-29.968-.866-16.016-.781-32.324 1.717-48.177 1.517-9.63 2.767-18.979 4.47-28.376"/></g></svg>
