<svg xmlns="http://www.w3.org/2000/svg" width="90" height="65" viewBox="0 0 90 65">
  <defs>
    <style>
      .cls-1 {
        fill: #fcc400;
        fill-rule: evenodd;
      }
    </style>
  </defs>
  <path id="product-transmit.svg" class="cls-1" d="M367,2281H337c-10,0-10,10-10,10v38a1.959,1.959,0,0,0,2,2h15.222a13.706,13.706,0,0,1,25.557,0H375a1.95,1.95,0,0,0,2-1.97V2291C377,2281,367,2281,367,2281Zm-55,45a10,10,0,1,0,10,10A10,10,0,0,0,312,2326Zm5-35H299c-1,0-1.809,1.88-1.809,1.88L287,2311l2.7,18.18A2.251,2.251,0,0,0,292,2331h7.222A13.734,13.734,0,0,1,312,2322.25a13.585,13.585,0,0,1,8.8,3.23c0.422,0.35,1.2.52,1.2-.48v-29.16C322,2291,317,2291,317,2291Zm-5,20H294.188L302,2297h10v14Zm45,15a10,10,0,1,0,10,10A10,10,0,0,0,357,2326Z" transform="translate(-287 -2281)"/>
</svg>
