<?xml version="1.0" encoding="utf-8"?>
<!-- Generator: Adobe Illustrator 23.0.1, SVG Export Plug-In . SVG Version: 6.00 Build 0)  -->
<svg version="1.1" id="JP" xmlns="http://www.w3.org/2000/svg" xmlns:xlink="http://www.w3.org/1999/xlink" x="0px" y="0px"
	 width="113.534px" height="40px" viewBox="0 0 113.534 40" style="enable-background:new 0 0 113.534 40;" xml:space="preserve">
<style type="text/css">
	.st0{fill:#A6A6A6;}
	.st1{fill:#FFFFFF;}
	.st2{fill:#C8C8C8;}
	.st3{fill:url(#SVGID_1_);}
	.st4{fill:#F9F9F9;}
</style>
<g>
	<g>
		<g>
			<path class="st0" d="M104.005,0H9.535C9.168,0,8.806,0,8.44,0.002C8.134,0.004,7.83,0.01,7.521,0.015
				C6.855,0.031,6.182,0.072,5.517,0.191C4.848,0.309,4.226,0.509,3.616,0.818C3.018,1.125,2.471,1.523,1.998,1.997
				C1.519,2.471,1.123,3.02,0.819,3.618C0.508,4.227,0.311,4.852,0.194,5.521C0.074,6.184,0.032,6.854,0.015,7.523
				C0.006,7.83,0.005,8.138,0,8.444C0,8.807,0,9.17,0,9.536v20.929c0,0.369,0,0.73,0,1.094c0.005,0.311,0.006,0.611,0.015,0.922
				c0.017,0.67,0.059,1.34,0.179,2.002c0.117,0.67,0.314,1.298,0.625,1.904c0.303,0.596,0.7,1.145,1.178,1.614
				c0.473,0.478,1.02,0.875,1.619,1.179c0.609,0.312,1.231,0.51,1.901,0.631c0.665,0.119,1.338,0.158,2.004,0.177
				c0.309,0.007,0.613,0.011,0.919,0.011C8.806,40,9.168,40,9.535,40h94.47c0.359,0,0.725,0,1.084-0.002
				c0.305,0,0.617-0.004,0.922-0.011c0.67-0.019,1.342-0.058,2-0.177c0.67-0.121,1.293-0.318,1.908-0.631
				c0.598-0.304,1.145-0.701,1.617-1.179c0.476-0.47,0.873-1.019,1.182-1.614c0.307-0.606,0.506-1.234,0.619-1.904
				c0.123-0.662,0.162-1.332,0.186-2.002c0.004-0.311,0.004-0.611,0.004-0.922c0.008-0.363,0.008-0.725,0.008-1.094V9.536
				c0-0.366,0-0.729-0.008-1.092c0-0.307,0-0.614-0.004-0.921c-0.024-0.67-0.062-1.34-0.186-2.002
				c-0.113-0.67-0.312-1.295-0.619-1.903c-0.309-0.599-0.705-1.147-1.182-1.621c-0.473-0.474-1.02-0.872-1.617-1.179
				c-0.615-0.31-1.238-0.51-1.908-0.627c-0.658-0.119-1.33-0.16-2-0.177c-0.305-0.005-0.617-0.011-0.922-0.013
				C104.729,0,104.364,0,104.005,0L104.005,0z"/>
			<path d="M8.445,39.125c-0.305,0-0.602-0.004-0.904-0.011c-0.559-0.016-1.222-0.047-1.869-0.163
				c-0.61-0.11-1.153-0.29-1.657-0.548c-0.521-0.265-0.99-0.606-1.397-1.017c-0.414-0.406-0.754-0.873-1.021-1.396
				c-0.259-0.505-0.437-1.047-0.543-1.657c-0.122-0.673-0.153-1.355-0.166-1.875c-0.006-0.211-0.015-0.913-0.015-0.913V8.444
				c0,0,0.009-0.691,0.015-0.895c0.013-0.524,0.044-1.206,0.166-1.872C1.16,5.064,1.337,4.522,1.597,4.016
				c0.266-0.524,0.606-0.994,1.015-1.398c0.414-0.414,0.884-0.757,1.402-1.022c0.514-0.261,1.055-0.439,1.653-0.544
				C6.341,0.931,7.023,0.9,7.543,0.887l0.902-0.012h96.638l0.913,0.013c0.513,0.013,1.195,0.043,1.858,0.163
				c0.603,0.105,1.147,0.285,1.671,0.548c0.513,0.263,0.982,0.605,1.392,1.016c0.409,0.406,0.752,0.878,1.023,1.404
				c0.258,0.511,0.434,1.053,0.535,1.649c0.116,0.631,0.152,1.279,0.174,1.887c0.003,0.283,0.003,0.587,0.003,0.89
				c0.008,0.375,0.008,0.732,0.008,1.092v20.929c0,0.363,0,0.718-0.008,1.075c0,0.325,0,0.623-0.004,0.93
				c-0.021,0.589-0.057,1.236-0.171,1.854c-0.103,0.613-0.279,1.155-0.54,1.67c-0.27,0.52-0.612,0.989-1.016,1.386
				c-0.413,0.418-0.882,0.759-1.399,1.023c-0.519,0.264-1.048,0.438-1.668,0.55c-0.641,0.116-1.304,0.147-1.869,0.163
				c-0.293,0.007-0.6,0.011-0.897,0.011l-1.084,0.002L8.445,39.125z"/>
		</g>
	</g>
</g>
<g>
	<g>
		<g>
			<path class="st1" d="M46.035,16.487h-4.733l-1.137,3.356H38.16l4.483-12.419h2.083l4.483,12.419h-2.039L46.035,16.487z
				 M41.792,14.938h3.752l-1.85-5.447h-0.052L41.792,14.938z"/>
			<path class="st1" d="M58.894,15.317c0,2.865-1.506,4.682-3.778,4.682c-1.299,0-2.332-0.637-2.848-1.645h-0.044v4.484h-1.858
				V10.789h1.799v1.559h0.034c0.533-1.042,1.575-1.705,2.883-1.705C57.379,10.643,58.894,12.45,58.894,15.317z M56.984,15.317
				c0-1.894-0.921-3.107-2.393-3.107c-1.42,0-2.375,1.24-2.375,3.107c0,1.885,0.946,3.106,2.375,3.106
				C56.063,18.423,56.984,17.218,56.984,15.317z"/>
			<path class="st1" d="M68.859,15.317c0,2.865-1.506,4.682-3.778,4.682c-1.299,0-2.332-0.637-2.848-1.645h-0.044v4.484H60.33
				V10.789h1.799v1.559h0.034c0.533-1.042,1.575-1.705,2.883-1.705C67.344,10.643,68.859,12.45,68.859,15.317z M66.948,15.317
				c0-1.894-0.921-3.107-2.393-3.107c-1.42,0-2.375,1.24-2.375,3.107c0,1.885,0.946,3.106,2.375,3.106
				C66.027,18.423,66.948,17.218,66.948,15.317z"/>
			<path class="st1" d="M70.364,7.424h1.859v12.419h-1.859V7.424z"/>
			<path class="st1" d="M81.901,17.184c-0.259,1.652-1.824,2.831-3.898,2.831c-2.659,0-4.269-1.798-4.269-4.655
				c0-2.84,1.635-4.733,4.19-4.733c2.514,0,4.08,1.772,4.08,4.519v0.637H75.61v0.111c0,1.575,0.946,2.616,2.436,2.616
				c1.059,0,1.842-0.534,2.091-1.325H81.901z M75.618,14.482h4.526c-0.043-1.386-0.921-2.358-2.221-2.358
				C76.625,12.123,75.713,13.114,75.618,14.482z"/>
			<path class="st1" d="M89.181,19.843V9.086h-3.804V7.424h9.526v1.662h-3.795v10.757H89.181z"/>
			<path class="st1" d="M100.079,19.843L95.647,7.424h2.092l3.382,10.25h0.052l3.391-10.25h2.057l-4.432,12.419H100.079z"/>
		</g>
		<g>
			<path class="st1" d="M40.099,31.975l0.065-0.814c0.347,0.112,0.684,0.149,0.946,0.149c0.291,0,0.403-0.028,0.543-0.225
				c0.253-0.365,0.431-1.171,0.431-2.305c0-0.843-0.262-1.087-0.927-1.087c-0.15,0-0.319,0.01-0.506,0.019
				c-0.431,1.611-1.049,3.073-1.762,4.104l-0.777-0.421c0.684-0.909,1.246-2.184,1.64-3.598c-0.506,0.056-1.04,0.141-1.527,0.253
				l-0.168-0.825c0.571-0.103,1.255-0.196,1.893-0.253c0.122-0.608,0.234-1.246,0.29-1.883l0.918,0.104
				c-0.084,0.571-0.188,1.143-0.319,1.705h0.366c1.189,0,1.761,0.59,1.761,1.846c0,1.293-0.234,2.267-0.543,2.782
				c-0.262,0.431-0.581,0.6-1.124,0.6C40.905,32.125,40.483,32.068,40.099,31.975z M43.116,26.925l0.684-0.459
				c1.077,0.946,1.471,2.296,1.602,3.467l-0.899,0.141C44.409,28.893,44.09,27.777,43.116,26.925z"/>
			<path class="st1" d="M48.701,32.107l-0.188-0.844c0.234,0.019,0.543,0.028,0.731,0.028c1.855,0,2.558-0.524,2.558-1.302
				c0-0.619-0.403-0.975-1.302-0.975c-0.787,0-1.687,0.44-2.567,1.255l-0.721-0.318c0-1.789,0.188-2.613,0.796-3.513l0.834,0.271
				c-0.572,0.759-0.712,1.48-0.712,2.436c0.769-0.524,1.724-0.871,2.558-0.871c1.255,0,2.033,0.646,2.033,1.695
				c0,1.331-1.049,2.146-3.569,2.146C49.028,32.115,48.851,32.107,48.701,32.107z M47.829,25.885l0.234-0.824
				c1.162,0.179,2.857,0.553,3.682,0.844l-0.225,0.814C50.78,26.439,48.972,26.025,47.829,25.885z"/>
			<path class="st1" d="M61.771,31.582l-0.712,0.749c-1.518-0.806-2.474-2.136-3.035-4.085c-0.394,1.377-1.171,3.11-3.12,4.085
				l-0.627-0.712c2.426-1.087,2.895-3.382,3.11-4.535l0.356,0.02c-0.057-0.347-0.122-0.712-0.169-1.097h-1.751v-0.834h2.595
				C58.671,28.63,59.654,30.626,61.771,31.582z"/>
			<path class="st1" d="M67.197,29.82v1.434c0,0.861-0.31,1.105-1.199,1.105c-0.3,0-0.675-0.01-0.928-0.019l-0.196-0.899
				c0.253,0.027,0.618,0.037,0.918,0.037c0.384,0,0.515-0.065,0.515-0.356V29.82H62.99v-0.824h3.316v-0.975h-2.651v-0.806h2.651
				v-0.975c-0.853,0.104-1.687,0.169-2.417,0.178l-0.347-0.806c1.817,0.01,4.348-0.328,5.678-0.749l0.478,0.768
				c-0.674,0.188-1.555,0.356-2.501,0.497v1.087h2.633v0.806h-2.633v0.975h3.298v0.824H67.197z"/>
		</g>
	</g>
</g>
<g>
	<path class="st2" d="M21.345,7.432h-2.522l-3.451,0c-0.045,0-0.089,0-0.134,0c-0.256,0-0.511,0-0.767,0.002
		c-0.253,0.002-0.506,0.004-0.759,0.011c-0.551,0.015-1.108,0.047-1.653,0.145c-0.553,0.099-1.068,0.262-1.57,0.518
		C9.994,8.36,9.542,8.689,9.15,9.081c-0.392,0.392-0.72,0.844-0.972,1.338c-0.256,0.503-0.418,1.018-0.518,1.572
		c-0.098,0.545-0.13,1.101-0.145,1.653c-0.007,0.253-0.01,0.506-0.011,0.759c-0.002,0.301-0.002,0.601-0.002,0.902l0,3.453v2.513
		l0,3.453c0,0.301,0,0.601,0.002,0.902c0.002,0.253,0.004,0.506,0.011,0.759c0.015,0.552,0.047,1.108,0.145,1.653
		c0.099,0.553,0.262,1.068,0.518,1.571c0.251,0.494,0.58,0.946,0.972,1.338c0.392,0.392,0.844,0.721,1.338,0.972
		c0.503,0.256,1.018,0.419,1.571,0.518c0.545,0.098,1.101,0.13,1.652,0.145c0.253,0.007,0.506,0.01,0.759,0.011
		c0.263,0.002,0.525,0.002,0.788,0.002c0.038,0,0.075,0,0.113,0l3.451,0h2.522l3.451,0c0.043,0,0.085,0,0.128,0
		c0.258,0,0.515,0,0.773-0.002c0.253-0.002,0.506-0.004,0.759-0.011c0.551-0.015,1.108-0.047,1.653-0.145
		c0.553-0.099,1.068-0.262,1.57-0.518c0.494-0.252,0.946-0.58,1.338-0.972c0.392-0.392,0.72-0.844,0.972-1.338
		c0.256-0.503,0.418-1.018,0.518-1.572c0.098-0.545,0.13-1.101,0.145-1.653c0.007-0.253,0.01-0.506,0.011-0.759
		c0.002-0.301,0.002-0.601,0.002-0.902l0-3.453v-2.513l0-3.453c0-0.301,0-0.601-0.002-0.902c-0.002-0.253-0.004-0.506-0.011-0.759
		c-0.015-0.552-0.047-1.108-0.145-1.653c-0.099-0.553-0.262-1.068-0.518-1.571c-0.251-0.494-0.58-0.946-0.972-1.338
		c-0.392-0.392-0.844-0.721-1.338-0.972c-0.503-0.256-1.018-0.419-1.571-0.518c-0.545-0.098-1.101-0.13-1.652-0.145
		c-0.253-0.007-0.506-0.01-0.759-0.011c-0.263-0.002-0.526-0.002-0.789-0.002c-0.037,0-0.075,0-0.112,0L21.345,7.432L21.345,7.432z"
		/>
	<linearGradient id="SVGID_1_" gradientUnits="userSpaceOnUse" x1="20.0841" y1="31.9612" x2="20.0841" y2="7.8881">
		<stop  offset="0" style="stop-color:#111111"/>
		<stop  offset="1" style="stop-color:#333333"/>
	</linearGradient>
	<path class="st3" d="M21.345,7.882L21.345,7.882l3.451,0h0.112l0.787,0.002c0.25,0.002,0.5,0.004,0.75,0.011
		c0.474,0.013,1.033,0.039,1.585,0.138c0.532,0.096,1.006,0.251,1.447,0.476c0.452,0.23,0.864,0.53,1.224,0.889
		c0.36,0.36,0.659,0.772,0.889,1.224c0.224,0.441,0.38,0.914,0.476,1.447c0.099,0.552,0.126,1.112,0.138,1.586
		c0.007,0.25,0.01,0.5,0.011,0.75c0.002,0.28,0.002,0.559,0.002,0.839v0.06l0,3.453v2.513l0,3.453v0.056
		c0,0.281,0,0.562-0.002,0.843c-0.002,0.25-0.004,0.5-0.011,0.75c-0.013,0.474-0.039,1.034-0.138,1.585
		c-0.096,0.533-0.251,1.006-0.476,1.447c-0.23,0.453-0.529,0.865-0.889,1.224c-0.36,0.36-0.771,0.659-1.224,0.889
		c-0.441,0.225-0.914,0.38-1.446,0.476c-0.552,0.099-1.111,0.126-1.585,0.139c-0.25,0.007-0.5,0.01-0.75,0.011l-0.771,0.002h-0.128
		l-3.451,0h-2.522l-3.451,0h-0.113l-0.785-0.002c-0.25-0.002-0.5-0.004-0.75-0.011c-0.474-0.013-1.033-0.039-1.585-0.138
		c-0.532-0.096-1.006-0.251-1.447-0.476c-0.452-0.23-0.864-0.53-1.224-0.889c-0.36-0.36-0.659-0.772-0.889-1.224
		c-0.224-0.441-0.38-0.914-0.476-1.447c-0.099-0.552-0.126-1.112-0.138-1.586c-0.007-0.25-0.01-0.5-0.011-0.75
		c-0.002-0.281-0.002-0.562-0.002-0.843v-0.056l0-3.453v-2.513l0-3.453v-0.056c0-0.281,0-0.562,0.002-0.843
		c0.002-0.25,0.004-0.5,0.011-0.75c0.013-0.474,0.039-1.034,0.138-1.585c0.096-0.533,0.251-1.006,0.476-1.447
		c0.23-0.453,0.529-0.864,0.889-1.224c0.36-0.36,0.771-0.659,1.224-0.889c0.441-0.225,0.914-0.38,1.446-0.476
		c0.552-0.099,1.111-0.126,1.585-0.139c0.25-0.007,0.5-0.01,0.75-0.011l0.765-0.002h0.134l3.451,0H21.345"/>
	<path id="__xF8FF__tv" class="st4" d="M14.774,16.993c-0.067-0.514,0.19-1.062,0.481-1.397c0.324-0.392,0.882-0.671,1.34-0.694
		c0.056,0.537-0.156,1.062-0.469,1.453C15.802,16.736,15.288,17.038,14.774,16.993z M17.269,19.725
		c-0.011-1.148,0.936-1.694,0.981-1.728c-0.535-0.791-1.371-0.88-1.66-0.903c-0.747-0.044-1.381,0.424-1.738,0.424
		c-0.357,0-0.903-0.401-1.493-0.39c-0.769,0.011-1.482,0.446-1.872,1.137c-0.802,1.383-0.212,3.434,0.568,4.56
		c0.379,0.557,0.835,1.17,1.437,1.148c0.568-0.022,0.791-0.368,1.482-0.368c0.69,0,0.891,0.368,1.493,0.357
		c0.624-0.011,1.014-0.557,1.393-1.115c0.435-0.635,0.613-1.248,0.624-1.282C18.472,21.553,17.28,21.096,17.269,19.725z
		 M27.753,17.552l-1.577,5.1h-0.03l-1.577-5.1h-1.331l2.249,6.346h1.337l2.237-6.346H27.753z M21.344,16.037h-1.26v1.514h-0.933v1
		h0.933v3.689c0,1.224,0.491,1.708,1.751,1.708c0.285,0,0.575-0.024,0.721-0.055v-1.005c-0.085,0.012-0.303,0.03-0.436,0.03
		c-0.533,0-0.775-0.254-0.775-0.806v-3.562h1.217v-1h-1.217V16.037z"/>
</g>
<g>
</g>
<g>
</g>
<g>
</g>
<g>
</g>
<g>
</g>
<g>
</g>
</svg>
