<svg xmlns="http://www.w3.org/2000/svg" xmlns:xlink="http://www.w3.org/1999/xlink" width="33" height="33" viewBox="0 0 33 33" fill="#fff">
  <path class="cls-1" d="M25.666,9.162V23.838a1.827,1.827,0,0,1-1.833,1.828H9.167a1.832,1.832,0,0,1-1.833-1.828V9.162A1.827,1.827,0,0,1,9.167,7.334H23.833a1.831,1.831,0,0,1,1.833,1.828h0Zm-22,20.17V23.84A1.833,1.833,0,1,0,0,23.84v7.317A1.838,1.838,0,0,0,1.835,33H9.168a1.833,1.833,0,0,0,0-3.667h-5.5ZM22,22H11V11H22V22ZM31.161,0h0A1.838,1.838,0,0,1,33,1.835V9.159a1.833,1.833,0,1,1-3.666,0V3.668H23.84A1.833,1.833,0,1,1,23.84,0h7.321Z"/>
</svg>
